<svg xmlns="http://www.w3.org/2000/svg" viewBox="0 0 160 160" role="img" aria-labelledby="title">
  <title id="title">YouTube logo</title>
  <rect width="160" height="160" fill="#b91c1c"/>
  <path fill="#ffffff" d="M132.5 51.8c-1.2-4.5-4.7-8-9.2-9.2C115.2 40.4 80 40.4 80 40.4s-35.2 0-43.3 2.2c-4.5 1.2-8 4.7-9.2 9.2-2.2 8.1-2.2 25-2.2 25s0 16.9 2.2 25c1.2 4.5 4.7 8 9.2 9.2 8.1 2.2 43.3 2.2 43.3 2.2s35.2 0 43.3-2.2c4.5-1.2 8-4.7 9.2-9.2 2.2-8.1 2.2-25 2.2-25s0-16.9-2.2-25ZM68.8 92.4V61.2l29.2 15.6-29.2 15.6Z"/>
</svg>
